<svg width="98" height="23" viewBox="0 0 98 23" fill="none" xmlns="http://www.w3.org/2000/svg">
<path fill-rule="evenodd" clip-rule="evenodd" d="M11.6931 0.818115C11.6802 0.818115 11.6686 0.826369 11.665 0.838914L11.4607 1.48862C11.4432 1.54474 11.3989 1.58898 11.3428 1.60648L10.6931 1.81084C10.6654 1.81942 10.6654 1.85871 10.6931 1.86729L11.3428 2.07164C11.3989 2.08947 11.4432 2.13338 11.4607 2.18983L11.665 2.83954C11.6805 2.88906 11.706 2.88906 11.7215 2.83954C11.7895 2.62297 11.8575 2.4064 11.9258 2.18983C11.9413 2.14031 11.9942 2.08716 12.044 2.07164L12.6937 1.86729C12.7215 1.85871 12.7215 1.81942 12.6937 1.81084L12.044 1.60648C11.9876 1.58898 11.9436 1.54474 11.9258 1.48862L11.7215 0.838914C11.7175 0.826369 11.706 0.818115 11.6931 0.818115ZM7.68984 1.99439C7.67268 1.99439 7.65782 2.00562 7.65254 2.02179L7.38315 2.87849C7.35971 2.95278 7.3016 3.01088 7.22732 3.03432L6.37062 3.30371C6.33431 3.31526 6.33431 3.36677 6.37062 3.37799L7.22732 3.64738C7.3016 3.67082 7.35971 3.7286 7.38315 3.80288L7.65254 4.65958C7.67301 4.72495 7.70635 4.72495 7.72715 4.65958C7.81695 4.37401 7.90674 4.08844 7.99654 3.80288C8.01701 3.73751 8.08667 3.66785 8.15203 3.64738L9.00874 3.37799C9.04538 3.36677 9.04538 3.31493 9.00874 3.30371L8.15203 3.03432C8.07775 3.01088 8.01965 2.95278 7.99654 2.87849L7.72715 2.02179C7.72187 2.00562 7.70701 1.99439 7.68984 1.99439ZM9.92387 3.66653C9.89152 3.66653 9.8628 3.68766 9.85323 3.71836L9.34218 5.34395C9.29794 5.48492 9.18767 5.59519 9.04671 5.63943L7.42144 6.15048C7.35211 6.17226 7.35211 6.26999 7.42144 6.29211L9.04671 6.80316C9.18767 6.84739 9.29794 6.95766 9.34218 7.0983L9.85323 8.72389C9.89218 8.84802 9.95557 8.84802 9.99453 8.72389C10.1649 8.18213 10.3352 7.64038 10.5056 7.0983C10.5445 6.97416 10.6769 6.84178 10.801 6.80316L12.4266 6.29211C12.496 6.27032 12.496 6.17259 12.4266 6.15048L10.801 5.63943C10.6604 5.59519 10.5498 5.48492 10.5056 5.34395L9.99453 3.71836C9.98495 3.68766 9.95623 3.66653 9.92387 3.66653Z" fill="url(#paint0_linear_956_1589)"/>
<path d="M13.376 18C13.226 18 13.151 17.925 13.151 17.775V6.22739C13.151 6.07738 13.226 6.00238 13.376 6.00238H15.9231C16.0731 6.00238 16.1481 6.07738 16.1481 6.22739V17.775C16.1481 17.925 16.0731 18 15.9231 18H13.376ZM18.5266 18C18.3766 18 18.3016 17.925 18.3016 17.775V8.00948C18.3016 7.87148 18.3526 7.75147 18.4546 7.64947L19.9487 6.14639C20.0507 6.05038 20.1707 6.00238 20.3087 6.00238H22.3698C22.5079 6.00238 22.6279 6.05038 22.7299 6.14639L24.2419 7.66747H24.665L26.177 6.14639C26.279 6.05038 26.3991 6.00238 26.5371 6.00238H28.5892C28.7332 6.00238 28.8532 6.05038 28.9492 6.14639L30.4523 7.64947C30.5543 7.75147 30.6053 7.87148 30.6053 8.00948V17.775C30.6053 17.925 30.5303 18 30.3803 18H27.8241C27.6741 18 27.5991 17.925 27.5991 17.775V8.3965H25.952V17.775C25.952 17.925 25.877 18 25.727 18H23.1799C23.0299 18 22.9549 17.925 22.9549 17.775V8.3965H21.2988V17.775C21.2988 17.925 21.2238 18 21.0738 18H18.5266ZM32.9312 18C32.7812 18 32.7062 17.925 32.7062 17.775V9.43156C32.7062 9.35355 32.7362 9.26355 32.7962 9.16154L34.9293 6.13739C34.9953 6.04738 35.0913 6.00238 35.2173 6.00238H38.1965C38.3285 6.00238 38.4245 6.04738 38.4845 6.13739L40.6266 9.16154C40.6866 9.24555 40.7166 9.33555 40.7166 9.43156V17.775C40.7166 17.925 40.6416 18 40.4916 18H37.9444C37.7944 18 37.7194 17.925 37.7194 17.775V13.9498H35.7123V17.775C35.7123 17.925 35.6373 18 35.4873 18H32.9312ZM36.7114 12.0147C37.2634 12.0147 37.6354 11.8947 37.8274 11.6547C38.0255 11.4087 38.1245 10.9436 38.1245 10.2596C38.1245 9.57557 38.0255 9.11354 37.8274 8.87353C37.6354 8.62752 37.2634 8.50451 36.7114 8.50451C36.1654 8.50451 35.7933 8.62752 35.5953 8.87353C35.4033 9.11354 35.3073 9.57557 35.3073 10.2596C35.3073 10.9436 35.4033 11.4087 35.5953 11.6547C35.7933 11.8947 36.1654 12.0147 36.7114 12.0147ZM45.1375 18C44.9935 18 44.8735 17.949 44.7775 17.847L42.9774 16.0469C42.8754 15.9509 42.8244 15.8309 42.8244 15.6869V8.3065C42.8244 8.16849 42.8754 8.04849 42.9774 7.94648L44.7775 6.14639C44.8735 6.05038 44.9935 6.00238 45.1375 6.00238H50.4568C50.6068 6.00238 50.6818 6.07738 50.6818 6.22739V8.17149C50.6818 8.3215 50.6068 8.3965 50.4568 8.3965H46.1276C46.0436 8.3965 45.9715 8.42651 45.9115 8.48651C45.8515 8.54651 45.8215 8.61852 45.8215 8.70252V15.2819C45.8215 15.3659 45.8515 15.4379 45.9115 15.4979C45.9715 15.5579 46.0436 15.5879 46.1276 15.5879H48.0717V13.1848H46.9196C46.7696 13.1848 46.6946 13.1097 46.6946 12.9597V11.0246C46.6946 10.8746 46.7696 10.7996 46.9196 10.7996H50.6098C50.7598 10.7996 50.8348 10.8746 50.8348 11.0246V15.6869C50.8348 15.8309 50.7838 15.9509 50.6818 16.0469L48.8817 17.847C48.7857 17.949 48.6657 18 48.5217 18H45.1375ZM52.9464 18C52.7964 18 52.7214 17.925 52.7214 17.775V6.22739C52.7214 6.07738 52.7964 6.00238 52.9464 6.00238H55.4935C55.6435 6.00238 55.7185 6.07738 55.7185 6.22739V17.775C55.7185 17.925 55.6435 18 55.4935 18H52.9464ZM58.097 18C57.947 18 57.872 17.925 57.872 17.775V6.22739C57.872 6.07738 57.947 6.00238 58.097 6.00238H64.2624C64.4124 6.00238 64.4874 6.07738 64.4874 6.22739V8.17149C64.4874 8.3215 64.4124 8.3965 64.2624 8.3965H60.8692V11.4027H63.8123C63.9624 11.4027 64.0374 11.4777 64.0374 11.6277V13.5718C64.0374 13.7218 63.9624 13.7968 63.8123 13.7968H60.8692V17.775C60.8692 17.925 60.7942 18 60.6442 18H58.097ZM68.2904 18C68.1403 18 68.0653 17.925 68.0653 17.775V14.2648L65.6532 11.8617C65.6112 11.8137 65.5842 11.7717 65.5722 11.7357C65.5662 11.6937 65.5632 11.6457 65.5632 11.5917V6.22739C65.5632 6.07738 65.6382 6.00238 65.7882 6.00238H68.3354C68.4854 6.00238 68.5604 6.07738 68.5604 6.22739V11.6727H70.5765V6.22739C70.5765 6.07738 70.6515 6.00238 70.8015 6.00238H73.3486C73.4986 6.00238 73.5736 6.07738 73.5736 6.22739V11.5917C73.5736 11.6457 73.5706 11.6937 73.5646 11.7357C73.5586 11.7717 73.5316 11.8137 73.4836 11.8617L71.0805 14.2648V17.775C71.0805 17.925 71.0055 18 70.8555 18H68.2904ZM78.4081 18C78.2581 18 78.1831 17.925 78.1831 17.775V9.43156C78.1831 9.35355 78.2131 9.26355 78.2731 9.16154L80.4062 6.13739C80.4722 6.04738 80.5683 6.00238 80.6943 6.00238H83.6734C83.8054 6.00238 83.9014 6.04738 83.9614 6.13739L86.1035 9.16154C86.1635 9.24555 86.1935 9.33555 86.1935 9.43156V17.775C86.1935 17.925 86.1185 18 85.9685 18H83.4214C83.2714 18 83.1964 17.925 83.1964 17.775V13.9498H81.1893V17.775C81.1893 17.925 81.1143 18 80.9643 18H78.4081ZM82.1883 12.0147C82.7404 12.0147 83.1124 11.8947 83.3044 11.6547C83.5024 11.4087 83.6014 10.9436 83.6014 10.2596C83.6014 9.57557 83.5024 9.11354 83.3044 8.87353C83.1124 8.62752 82.7404 8.50451 82.1883 8.50451C81.6423 8.50451 81.2703 8.62752 81.0723 8.87353C80.8803 9.11354 80.7843 9.57557 80.7843 10.2596C80.7843 10.9436 80.8803 11.4087 81.0723 11.6547C81.2703 11.8947 81.6423 12.0147 82.1883 12.0147ZM88.5264 18C88.3763 18 88.3013 17.925 88.3013 17.775V6.22739C88.3013 6.07738 88.3763 6.00238 88.5264 6.00238H91.0735C91.2235 6.00238 91.2985 6.07738 91.2985 6.22739V17.775C91.2985 17.925 91.2235 18 91.0735 18H88.5264Z" fill="url(#paint1_linear_956_1589)"/>
<defs>
<linearGradient id="paint0_linear_956_1589" x1="9.52895" y1="0.818115" x2="9.52895" y2="8.81698" gradientUnits="userSpaceOnUse">
<stop stop-color="#BA8B02"/>
<stop offset="1" stop-color="#181818"/>
</linearGradient>
<linearGradient id="paint1_linear_956_1589" x1="12.0709" y1="11.5" x2="93.0709" y2="11.5" gradientUnits="userSpaceOnUse">
<stop stop-color="#BA8B02"/>
<stop offset="1" stop-color="#181818"/>
</linearGradient>
</defs>
</svg>
