<svg width="18" height="23" viewBox="0 0 18 23" fill="none" xmlns="http://www.w3.org/2000/svg">
<path d="M15.025 11.7585C15.047 10.0517 15.9636 8.43659 17.4178 7.54258C16.5004 6.23241 14.9638 5.40172 13.3652 5.35171C11.6601 5.17273 10.0071 6.37199 9.13827 6.37199C8.25258 6.37199 6.91481 5.36947 5.47426 5.39911C3.59655 5.45978 1.84606 6.52734 0.932522 8.16895C-1.03123 11.5689 0.433551 16.5656 2.31466 19.3139C3.25582 20.6596 4.35577 22.1629 5.79503 22.1096C7.20342 22.0511 7.72944 21.2115 9.42949 21.2115C11.1138 21.2115 11.6073 22.1096 13.0757 22.0757C14.587 22.0511 15.5392 20.7239 16.4473 19.3655C17.1236 18.4066 17.6439 17.3468 17.9891 16.2254C16.2131 15.4742 15.027 13.6869 15.025 11.7585Z" fill="white"/>
<path d="M12.2513 3.54432C13.0753 2.55513 13.4812 1.28368 13.3829 0C12.124 0.132224 10.9612 0.733899 10.126 1.68514C9.30935 2.61456 8.88436 3.86363 8.96471 5.09825C10.2241 5.11121 11.4621 4.52585 12.2513 3.54432Z" fill="white"/>
</svg>
