<svg width="84" height="84" viewBox="0 0 84 84" fill="none" xmlns="http://www.w3.org/2000/svg">
<g clip-path="url(#clip0_1748_2280)">
<path d="M23.7536 30.4366C23.7536 32.1588 23.8652 33.555 24.0597 34.5789C24.3068 35.7309 24.6042 36.8508 24.9496 37.9296C25.0887 38.3018 25.1442 38.6741 25.1442 39.0002C25.1442 39.4652 24.9775 39.9308 24.6159 40.3963L22.8637 42.3508C22.6134 42.6303 22.363 42.7697 22.1402 42.7697C21.8623 42.7697 21.584 42.537 21.3058 42.1181C20.9307 41.4447 20.5954 40.7122 20.3047 39.9308C20.0264 39.1402 19.7482 38.2552 19.4424 37.1851C17.2726 41.4664 14.5467 43.6072 11.2648 43.6076C8.92858 43.6076 7.06483 42.4903 5.7018 40.2569C4.3391 38.0224 3.6438 35.0439 3.6438 31.321C3.6438 27.3654 4.47822 24.1541 6.17496 21.7341C7.87136 19.314 10.1246 18.1039 12.9895 18.1039C13.9351 18.1039 14.9087 18.2434 15.9377 18.4762C16.967 18.709 18.0239 19.0812 19.1365 19.5001V16.1028C19.1365 12.5654 18.6913 10.0992 17.829 8.65642C16.9391 7.21359 15.4369 6.51524 13.2953 6.51524C12.3217 6.51524 11.3206 6.70191 10.2913 7.12081C9.26196 7.53971 8.26085 8.0514 7.2873 8.70308C6.84236 9.02865 6.50866 9.21477 6.31375 9.3081C6.11885 9.40144 5.98005 9.44755 5.86881 9.44755C5.47933 9.44755 5.28475 8.98199 5.28475 8.00473V5.7241C5.28475 4.97963 5.34053 4.42128 5.47933 4.09571C5.61846 3.76959 5.86881 3.44403 6.2583 3.11846C7.23174 2.28029 8.39986 1.58212 9.76267 1.02395C11.126 0.418927 12.5724 0.140025 14.1021 0.140025C17.4123 0.140025 19.8322 1.39618 21.3898 3.90959C22.9195 6.42246 23.6985 10.2387 23.6985 15.3583V30.4366H23.7536ZM12.4608 37.5107C13.3789 37.5107 14.3246 37.2318 15.3257 36.6729C16.3271 36.1145 17.2173 35.0906 17.9681 33.6945C18.4134 32.8105 18.7471 31.8333 18.9138 30.716C19.0808 29.5993 19.192 28.2493 19.192 26.667V24.7125C18.3485 24.3692 17.4941 24.1051 16.633 23.9214C15.7658 23.7373 14.8926 23.6439 14.0185 23.6419C12.1547 23.6419 10.792 24.2469 9.87424 25.5036C8.95647 26.7603 8.5112 28.5287 8.5112 30.8555C8.5112 33.0428 8.84491 34.6717 9.54021 35.789C10.2079 36.9523 11.1815 37.5107 12.4608 37.5107ZM34.796 42.537C34.2953 42.537 33.9616 42.3975 33.7391 42.0714C33.5166 41.7925 33.3217 41.1408 33.155 40.2569L26.6188 4.28183C26.4514 3.35069 26.3681 2.74567 26.3681 2.4201C26.3681 1.67563 26.5906 1.25618 27.0358 1.25618H29.7616C30.2898 1.25618 30.6518 1.39618 30.8463 1.72175C31.0688 2.0012 31.2358 2.65289 31.4025 3.53681L36.0753 34.3461L40.4145 3.53681C40.5536 2.60622 40.7206 2.0012 40.9428 1.72175C41.1656 1.44285 41.555 1.25673 42.0558 1.25673H44.2808C44.8091 1.25673 45.171 1.39618 45.3931 1.72175C45.6159 2.0012 45.8105 2.65289 45.9217 3.53681L50.3166 34.7184L55.1283 3.53681C55.2949 2.60622 55.4898 2.0012 55.6844 1.72175C55.9069 1.44285 56.2685 1.25673 56.7692 1.25673H59.3558C59.8011 1.25673 60.0514 1.62897 60.0514 2.4201C60.0514 2.65289 60.0235 2.88567 59.9957 3.16457C59.9678 3.44348 59.9123 3.81626 59.8011 4.3285L53.0975 40.303C52.9308 41.2341 52.7361 41.8392 52.5134 42.1181C52.291 42.3975 51.9294 42.5836 51.4569 42.5836H49.0648C48.5362 42.5836 48.1746 42.4442 47.9518 42.1181C47.7294 41.7925 47.5348 41.1875 47.4236 40.2569L43.112 10.2387L38.8286 40.2097C38.6898 41.1408 38.5228 41.7458 38.3004 42.0714C38.0779 42.3975 37.6884 42.537 37.188 42.537H34.796ZM70.5377 43.7937C69.0913 43.7937 67.6449 43.5142 66.2543 42.9559C64.8634 42.3975 63.7789 41.7919 63.0558 41.0947C62.6105 40.6752 62.3043 40.2102 62.1934 39.7913C62.0853 39.3804 62.0284 38.9369 62.0264 38.4879V36.1145C62.0264 35.1373 62.2489 34.6717 62.6663 34.6717C62.8366 34.6728 63.0057 34.72 63.167 34.8117C63.3337 34.905 63.584 35.0906 63.8623 35.2767C64.8446 36.0002 65.8702 36.5462 66.9217 36.9057C68.0113 37.2753 69.1201 37.4623 70.2318 37.464C71.984 37.464 73.3471 36.9523 74.2927 35.9284C75.2384 34.9045 75.7391 33.4156 75.7391 31.5072C75.7391 30.2043 75.4887 29.1337 74.988 28.2493C74.4873 27.3648 73.5416 26.5742 72.1789 25.8292L68.1456 23.7352C66.1152 22.6646 64.6134 21.0824 63.6953 18.9879C62.7775 16.94 62.3047 14.6599 62.3047 12.2399C62.3047 10.2854 62.555 8.56327 63.0558 7.07359C63.5561 5.58465 64.2239 4.28183 65.0583 3.25791C65.8927 2.18732 66.8384 1.39618 67.951 0.837829C69.0634 0.279476 70.2315 0.0466919 71.4554 0.0466919C72.0674 0.0466919 72.7072 0.0933585 73.3192 0.23281C73.959 0.372261 74.5431 0.558378 75.1271 0.744496C75.6833 0.97728 76.2119 1.21006 76.7126 1.48952C77.2132 1.76842 77.6025 2.0475 77.8808 2.32677C78.2702 2.69955 78.5482 3.07179 78.7152 3.49069C78.8821 3.86293 78.9655 4.3748 78.9655 5.0263V7.21359C78.9655 8.19085 78.7431 8.70308 78.3257 8.70308C78.1032 8.70308 77.7416 8.51642 77.2691 8.14418C75.6832 6.93414 73.903 6.32912 71.9286 6.32912C70.3431 6.32912 69.0913 6.74802 68.229 7.6325C67.367 8.51642 66.9217 9.86646 66.9217 11.7743C66.9217 13.0777 67.2 14.1944 67.7561 15.0788C68.3123 15.9633 69.3416 16.8472 70.8159 17.6384L74.7655 19.7329C76.7681 20.8035 78.2145 22.2924 79.0768 24.2003C79.9391 26.1081 80.3565 28.2959 80.3565 30.716C80.3565 32.7172 80.1058 34.5323 79.633 36.1145C79.1326 37.6968 78.4648 39.093 77.6025 40.2102C76.7402 41.3736 75.7112 42.2114 74.5152 42.8164C73.2634 43.4681 71.9561 43.7937 70.5377 43.7937Z" fill="white"/>
<path d="M75.7947 66.4116C66.6439 77.7208 53.3483 83.7244 41.9168 83.7244C25.8954 83.7244 11.4599 73.8113 0.55661 57.3363C-0.305702 56.0335 0.472938 54.2651 1.50194 55.2885C13.2954 66.7377 27.8425 73.6718 42.8903 73.6718C53.0425 73.6718 64.1961 70.135 74.4599 62.8748C75.9896 61.7109 77.2968 64.5504 75.7947 66.4116ZM79.6055 59.1514C78.4374 56.6385 71.8729 57.9413 68.8968 58.5463C68.0066 58.733 67.8675 57.4296 68.6744 56.4524C73.9034 50.3088 82.4983 52.0778 83.4994 54.1251C84.5008 56.2196 83.2211 70.6001 78.3258 77.4881C77.5751 78.5587 76.8519 78.0003 77.1856 76.6041C78.298 71.9962 80.7737 61.6181 79.6055 59.1514Z" fill="#FF9900"/>
</g>
<defs>
<clipPath id="clip0_1748_2280">
<rect width="84" height="84" fill="white"/>
</clipPath>
</defs>
</svg>
