<svg width="84" height="84" viewBox="0 0 84 84" fill="none" xmlns="http://www.w3.org/2000/svg">
<path d="M31.5 10.5H42V31.5H31.5C28.7152 31.5 26.0445 30.3938 24.0754 28.4246C22.1062 26.4555 21 23.7848 21 21C21 18.2152 22.1062 15.5445 24.0754 13.5754C26.0445 11.6062 28.7152 10.5 31.5 10.5Z" fill="#F4511E"/>
<path d="M52.5 31.5H42V10.5H52.5C55.2848 10.5 57.9555 11.6062 59.9246 13.5754C61.8938 15.5445 63 18.2152 63 21C63 23.7848 61.8938 26.4555 59.9246 28.4246C57.9555 30.3938 55.2848 31.5 52.5 31.5Z" fill="#FF8A65"/>
<path d="M42 42C42 47.799 46.701 52.5 52.5 52.5C58.299 52.5 63 47.799 63 42C63 36.201 58.299 31.5 52.5 31.5C46.701 31.5 42 36.201 42 42Z" fill="#29B6F6"/>
<path d="M31.5 31.5H42V52.5H31.5C28.7152 52.5 26.0445 51.3938 24.0754 49.4246C22.1062 47.4555 21 44.7848 21 42C21 39.2152 22.1062 36.5445 24.0754 34.5754C26.0445 32.6062 28.7152 31.5 31.5 31.5Z" fill="#7C4DFF"/>
<path d="M31.5 52.5H42V63C42 65.7848 40.8938 68.4555 38.9246 70.4246C36.9555 72.3938 34.2848 73.5 31.5 73.5C28.7152 73.5 26.0445 72.3938 24.0754 70.4246C22.1062 68.4555 21 65.7848 21 63C21 60.2152 22.1062 57.5445 24.0754 55.5754C26.0445 53.6062 28.7152 52.5 31.5 52.5Z" fill="#00E676"/>
</svg>
