<svg width="84" height="84" viewBox="0 0 84 84" fill="none" xmlns="http://www.w3.org/2000/svg">
<g clip-path="url(#clip0_1735_2334)">
<path d="M69.0647 27.1983C68.1708 26.854 67.2692 26.5349 66.361 26.2415C66.5136 25.5415 66.654 24.8499 66.7787 24.1706C68.8255 13.0144 67.4874 4.02678 62.917 1.06762C58.5349 -1.76922 51.3683 1.18883 44.1305 8.26141C43.4172 8.95966 42.7197 9.67807 42.0387 10.4159C41.5828 9.9253 41.1189 9.44419 40.6471 8.97283C33.0615 1.41062 25.4582 -1.77659 20.8927 1.19104C16.5145 4.03673 15.2181 12.4857 17.0609 23.0587C17.2442 24.1058 17.4512 25.1476 17.6817 26.1829C16.6054 26.5263 15.5669 26.8917 14.573 27.2808C5.67951 30.7624 0 36.2183 0 41.8776C0 47.7226 6.09722 53.5853 15.3602 57.1402C16.1112 57.4272 16.8684 57.6931 17.6311 57.9378C17.3835 59.053 17.1636 60.1756 16.9716 61.3045C15.2148 71.6939 16.5867 79.9433 20.9531 82.7709C25.4628 85.691 33.032 82.6898 40.402 75.4559C40.9996 74.8677 41.5841 74.263 42.1549 73.6422C42.8923 74.4411 43.6495 75.2168 44.4255 75.9684C51.5648 82.8659 58.6156 85.6512 62.9777 82.8158C67.4832 79.8873 68.9476 71.0253 67.0464 60.2434C66.8967 59.3987 66.7287 58.5582 66.5428 57.7227C67.0743 57.5458 67.596 57.3638 68.1046 57.1745C77.7345 53.5923 84 47.8007 84 41.8776C84 36.1977 78.1371 30.7049 69.0647 27.1983ZM66.9762 53.3503C66.5164 53.5207 66.0461 53.6859 65.5653 53.8458C64.5022 50.0669 63.0676 46.0489 61.3118 41.8971C62.9872 37.8445 64.3666 33.8777 65.3999 30.1235C66.2593 30.4028 67.093 30.6971 67.8969 31.0077C75.6702 34.0126 80.4116 38.4546 80.4116 41.8776C80.4116 45.5235 75.2909 50.2566 66.9762 53.3503ZM63.5263 61.0259C64.367 65.7933 64.4867 70.1038 63.9299 73.4738C63.4298 76.5018 62.4238 78.5204 61.1796 79.3291C58.5326 81.0496 52.8714 78.8133 46.766 72.9142C46.0443 72.2154 45.34 71.4942 44.6539 70.7515C47.021 67.845 49.3864 64.4663 51.6951 60.7135C55.756 60.309 59.5924 59.6473 63.0715 58.7443C63.2433 59.5209 63.3948 60.2815 63.5263 61.0259ZM28.6374 79.0318C26.0512 80.0571 23.9912 80.0866 22.746 79.2805C20.0963 77.5647 18.9948 70.9409 20.4973 62.056C20.6759 61.0061 20.8804 59.962 21.1106 58.9248C24.5513 59.7796 28.3598 60.3941 32.4302 60.7647C34.7547 64.4368 37.1884 67.8119 39.6411 70.7674C39.1198 71.3336 38.5863 71.8855 38.0408 72.4223C34.7816 75.6209 31.5158 77.8904 28.6374 79.0318ZM16.5211 53.3278C12.4251 51.7557 9.04247 49.7128 6.72394 47.4835C4.64034 45.4804 3.5887 43.4913 3.5887 41.8776C3.5887 38.4432 8.14866 34.0627 15.7543 31.0855C16.6773 30.7244 17.6433 30.3836 18.6457 30.0638C19.697 33.9028 21.0758 37.9167 22.7397 41.9756C21.0541 46.0946 19.6557 50.1726 18.5942 54.0569C17.898 53.8329 17.2067 53.5898 16.5211 53.3278ZM20.5826 22.2846C19.004 13.2263 20.0524 6.39315 22.6908 4.67815C25.5009 2.85151 31.7149 5.45588 38.2646 11.9858C38.6917 12.4125 39.1119 12.848 39.525 13.2918C37.0844 16.2344 34.673 19.5845 32.3692 23.2348C28.4186 23.6459 24.6369 24.3061 21.1601 25.1907C20.9459 24.2278 20.7533 23.2585 20.5826 22.2846ZM56.8165 32.3311C55.9953 30.7384 55.1436 29.1657 54.262 27.6142C56.9422 27.9948 59.5101 28.4999 61.9215 29.1174C61.1976 31.7228 60.2953 34.4466 59.2331 37.2392C58.4568 35.5853 57.6511 33.9489 56.8165 32.3311ZM42.0404 16.1718C43.6954 18.1852 45.3531 20.4329 46.9836 22.8719C43.6761 22.6965 40.363 22.6957 37.0555 22.8697C38.6876 20.4532 40.3594 18.2084 42.0404 16.1718ZM27.1694 32.3584C26.3453 33.9631 25.5546 35.5893 24.798 37.2355C23.7533 34.4528 22.8592 31.7166 22.1291 29.0743C24.5257 28.4723 27.0815 27.98 29.7445 27.6065C28.8532 29.1675 27.9946 30.7521 27.1694 32.3584ZM29.821 56.435C27.0697 56.0902 24.4755 55.6234 22.0795 55.0376C22.8211 52.3482 23.7349 49.5537 24.8023 46.7113C25.5618 48.3588 26.3558 49.9859 27.1835 51.5914C28.0347 53.2419 28.916 54.8586 29.821 56.435ZM42.1395 67.8671C40.4385 65.8069 38.742 63.5275 37.0853 61.076C38.6938 61.1468 40.3335 61.1829 42 61.1829C43.7122 61.1829 45.4046 61.1398 47.0705 61.0565C45.4348 63.5522 43.7834 65.8349 42.1395 67.8671ZM59.2669 46.5661C60.3898 49.4398 61.3361 52.2196 62.0875 54.863C59.6521 55.4871 57.0225 55.9896 54.2519 56.3628C55.1397 54.7825 55.9995 53.1825 56.8306 51.5638C57.6757 49.9184 58.488 48.2521 59.2669 46.5661ZM53.7223 49.5507C52.4498 52.0325 51.1058 54.4672 49.6926 56.851C47.1324 57.0547 44.5666 57.1558 42 57.1542C39.3858 57.1542 36.8432 57.0628 34.3947 56.8845C32.9444 54.5063 31.5748 52.0674 30.2889 49.5728C29.0088 47.0916 27.8136 44.5566 26.7051 41.9734C27.8108 39.3896 29.0027 36.8534 30.2784 34.3703L30.2781 34.3707C31.5531 31.8868 32.9117 29.4583 34.3511 27.0903C36.8491 26.8781 39.4108 26.7676 41.9997 26.7676C44.6004 26.7676 47.1657 26.8792 49.663 27.0929C51.0879 29.4573 52.4378 31.8775 53.7105 34.3489C54.9902 36.8267 56.1979 39.3505 57.3316 41.9163C56.2095 44.5083 55.0056 47.0548 53.7223 49.5507ZM61.1248 4.55767C63.9375 6.37915 65.0314 13.7244 63.2641 23.3567C63.1508 23.9717 63.025 24.5968 62.8868 25.232C59.4015 24.3286 55.6172 23.657 51.6551 23.2396C49.347 19.5491 46.9553 16.1939 44.5545 13.2893C45.1837 12.6083 45.8279 11.9449 46.4865 11.2998C52.688 5.24036 58.484 2.84783 61.1248 4.55767ZM42 33.4555C46.1426 33.4555 49.5009 37.2263 49.5009 41.8776C49.5009 46.5289 46.1426 50.2997 42 50.2997C37.8574 50.2997 34.4991 46.5289 34.4991 41.8776C34.4991 37.2263 37.8574 33.4555 42 33.4555Z" fill="#00D8FF"/>
</g>
<defs>
<clipPath id="clip0_1735_2334">
<rect width="84" height="84" fill="white"/>
</clipPath>
</defs>
</svg>
